Coordinates
version=1
nRows=32
nColumns=12
inDegrees=yes

Units are S.I. units (second, meters, Newtons, ...)
Angles are in degrees

endheader
time	SC_y	SC_z	SC_x	AC_y	AC_z	AC_x	GH_y	GH_z	GH_yy	EL_x	PS_y
       0.0              -13.07           17.7          51.97          69.01         -15.68         -18.48          12.33          47.14         -110.0          124.6          42.28
 6.667e-05              -13.07           17.7          51.97          69.01         -15.67         -18.48          12.33          47.14         -110.0          124.5           42.3
 0.0001333              -13.07           17.7          51.97           69.0         -15.67         -18.48          12.33          47.15         -110.0          124.5          42.31
    0.0002              -13.07           17.7          51.97           69.0         -15.67         -18.47          12.33          47.15         -110.0          124.5          42.32
 0.0002667              -13.07           17.7          51.97           69.0         -15.66         -18.47          12.33          47.16         -110.0          124.5          42.34
 0.0003334              -13.07           17.7          51.97           69.0         -15.66         -18.47          12.34          47.16         -110.0          124.5          42.36
    0.0004              -13.07          17.69          51.97           69.0         -15.65         -18.46          12.34          47.17         -110.0          124.5          42.38
 0.0004667              -13.07          17.69          51.97           69.0         -15.65         -18.46          12.34          47.18         -110.0          124.5           42.4
 0.0005334              -13.07          17.69          51.97          68.99         -15.65         -18.45          12.34          47.18         -110.1          124.4          42.42
    0.0006              -13.07          17.69          51.98          68.99         -15.64         -18.45          12.34          47.19         -110.1          124.4          42.44
 0.0006667              -13.07          17.69          51.98          68.99         -15.63         -18.44          12.34           47.2         -110.1          124.4          42.47
 0.0007334              -13.07          17.68          51.98          68.99         -15.63         -18.44          12.35          47.21         -110.1          124.4          42.49
    0.0008              -13.07          17.68          51.98          68.98         -15.62         -18.43          12.35          47.21         -110.1          124.4          42.52
 0.0008667              -13.07          17.68          51.98          68.98         -15.62         -18.43          12.35          47.22         -110.2          124.4          42.55
 0.0009334              -13.07          17.67          51.98          68.98         -15.61         -18.42          12.35          47.23         -110.2          124.3          42.58
     0.001              -13.07          17.67          51.98          68.97          -15.6         -18.41          12.36          47.25         -110.2          124.3          42.62
  0.001067              -13.07          17.67          51.99          68.97         -15.59         -18.41          12.36          47.26         -110.2          124.3          42.66
  0.001133              -13.07          17.66          51.99          68.97         -15.58          -18.4          12.36          47.27         -110.3          124.2           42.7
    0.0012              -13.07          17.66          51.99          68.96         -15.57         -18.39          12.36          47.29         -110.3          124.2          42.75
  0.001267              -13.07          17.65          51.99          68.96         -15.56         -18.38          12.37           47.3         -110.3          124.2           42.8
  0.001333              -13.07          17.65          51.99          68.95         -15.55         -18.36          12.37          47.32         -110.4          124.1          42.86
    0.0014              -13.07          17.64           52.0          68.94         -15.54         -18.35          12.38          47.34         -110.4          124.1          42.92
  0.001467              -13.07          17.64           52.0          68.94         -15.52         -18.34          12.38          47.36         -110.5          124.0          42.99
  0.001533              -13.07          17.63           52.0          68.93          -15.5         -18.32          12.39          47.38         -110.5          124.0          43.06
    0.0016              -13.07          17.62          52.01          68.92         -15.49         -18.31          12.39          47.41         -110.6          123.9          43.15
  0.001667              -13.07          17.61          52.01          68.91         -15.46         -18.29           12.4          47.44         -110.7          123.8          43.24
  0.001733              -13.07           17.6          52.02           68.9         -15.44         -18.26          12.41          47.47         -110.7          123.8          43.34
    0.0018              -13.07          17.59          52.02          68.89         -15.42         -18.24          12.42          47.51         -110.8          123.7          43.46
  0.001867              -13.07          17.58          52.03          68.88         -15.39         -18.21          12.43          47.55         -110.9          123.6           43.6
  0.001933              -13.07          17.56          52.03          68.86         -15.35         -18.18          12.44           47.6         -111.0          123.5          43.75
     0.002              -13.07          17.55          52.04          68.84         -15.31         -18.15          12.45          47.65         -111.1          123.3          43.92
  0.002067              -13.07          17.53          52.05          68.82         -15.27         -18.11          12.46          47.72         -111.3          123.2          44.12
